<svg width="14851" height="4218" viewBox="0 0 14851 4218" fill="none" xmlns="http://www.w3.org/2000/svg">
<path d="M1924.01 909.108L1990.1 1152.53C1973.94 1289.84 1930.99 1478.19 1861.23 1717.58C1806.89 1589.81 1749.98 1472.69 1690.5 1366.21C1545.11 1307.47 1402.29 1278.1 1262.04 1278.1C1032.93 1278.1 854.131 1345.65 725.628 1480.76C596.391 1616.61 531.772 1775.59 531.772 1957.69C531.772 2057.56 558.941 2143.47 613.28 2215.43C666.884 2286.66 769.686 2352.75 921.687 2413.7C1074.42 2474.64 1265.34 2520.54 1494.44 2551.38C1570.81 2562.39 1649.01 2571.2 1729.05 2577.81C1809.09 2584.42 1896.84 2589.56 1992.3 2593.23C2087.76 2596.9 2176.98 2598.74 2259.96 2598.74L2066.1 2853.18C1779.72 2906.78 1509.5 2933.58 1255.43 2933.58C919.851 2933.58 674.594 2869.33 519.656 2740.83C363.249 2613.06 285.046 2447.11 285.046 2242.97C285.046 2016.8 350.032 1794.31 480.004 1575.49C608.507 1356.67 784.74 1186.67 1008.7 1065.51C1232.66 944.355 1456.99 883.775 1681.69 883.775C1756.59 883.775 1837.36 892.219 1924.01 909.108Z" fill="#006633"/>
<path d="M2609.69 2914.84C2473.61 2914.84 2359.73 2889.7 2268.02 2839.41C2176.32 2787.64 2111.24 2715.91 2072.79 2624.21C2034.33 2531.03 2025.46 2421.58 2046.17 2295.86L2205.9 1332.99H2563.1L2403.36 2295.86C2393 2356.5 2395.22 2408.27 2410.01 2451.16C2424.8 2494.05 2449.95 2527.33 2485.45 2550.99C2522.42 2573.18 2568.27 2584.27 2623 2584.27C2688.08 2584.27 2746.5 2572.44 2798.27 2548.78C2850.03 2523.63 2892.19 2489.61 2924.72 2446.72C2958.74 2402.35 2980.19 2352.06 2989.06 2295.86L3148.8 1332.99H3505.99L3346.25 2295.86C3324.07 2426.01 3280.44 2537.68 3215.36 2630.86C3150.28 2722.56 3065.97 2792.82 2962.44 2841.63C2860.39 2890.44 2742.8 2914.84 2609.69 2914.84ZM3304.43 2886L3564.01 1332.99H4163.02C4276.91 1332.99 4374.53 1355.92 4455.87 1401.77C4537.22 1447.62 4596.38 1511.22 4633.36 1592.57C4671.82 1672.44 4682.17 1764.14 4664.42 1867.67C4648.15 1965.29 4609.7 2051.81 4549.06 2127.25C4488.41 2201.2 4410.76 2259.62 4316.1 2302.51C4222.92 2343.93 4120.13 2364.63 4007.72 2364.63H3748.15L3661.62 2886H3304.43ZM4151.93 2886L3901.23 2269.23L4194.08 2071.78L4551.27 2886H4151.93ZM3803.61 2036.28H4036.56C4083.89 2036.28 4126.79 2028.15 4165.24 2011.88C4205.18 1995.61 4236.97 1971.94 4260.64 1940.88C4284.3 1908.35 4296.88 1869.15 4298.36 1823.3C4301.31 1774.49 4286.52 1735.3 4253.98 1705.71C4221.44 1674.65 4174.85 1659.12 4114.21 1659.12H3865.73L3803.61 2036.28ZM4534.18 2886L4793.76 1332.99H5392.77C5506.66 1332.99 5604.28 1355.92 5685.63 1401.77C5766.98 1447.62 5826.14 1511.22 5863.11 1592.57C5901.57 1672.44 5911.92 1764.14 5894.17 1867.67C5877.9 1965.29 5839.45 2051.81 5778.81 2127.25C5718.17 2201.2 5640.52 2259.62 5545.86 2302.51C5452.68 2343.93 5349.88 2364.63 5237.47 2364.63H4977.9L4891.38 2886H4534.18ZM5381.68 2886L5130.98 2269.23L5423.83 2071.78L5781.03 2886H5381.68ZM5033.36 2036.28H5266.32C5313.65 2036.28 5356.54 2028.15 5394.99 2011.88C5434.93 1995.61 5466.73 1971.94 5490.39 1940.88C5514.06 1908.35 5526.63 1869.15 5528.11 1823.3C5531.07 1774.49 5516.28 1735.3 5483.74 1705.71C5451.2 1674.65 5404.61 1659.12 5343.97 1659.12H5095.48L5033.36 2036.28ZM5763.94 2886L6023.51 1332.99H6380.7L6121.13 2886H5763.94ZM6923.98 2912.62C6781.99 2912.62 6658.49 2883.78 6553.47 2826.1C6448.46 2766.94 6368.59 2684.85 6313.87 2579.84C6259.14 2474.82 6234 2354.28 6238.44 2218.21C6242.87 2095.45 6268.02 1979.34 6313.87 1869.89C6361.2 1758.96 6424.8 1661.34 6504.66 1577.04C6586.01 1492.73 6680.67 1426.91 6788.64 1379.58C6898.09 1330.77 7017.16 1306.37 7145.83 1306.37C7262.68 1306.37 7365.47 1327.08 7454.22 1368.49C7544.44 1408.42 7619.13 1464.63 7678.29 1537.1C7737.46 1609.58 7778.13 1692.4 7800.32 1785.58L7456.44 1880.98C7441.65 1829.22 7419.46 1784.84 7389.88 1747.87C7360.3 1710.89 7324.06 1682.79 7281.17 1663.56C7239.75 1644.33 7191.69 1634.72 7136.96 1634.72C7063.01 1634.72 6994.23 1650.25 6930.63 1681.31C6867.03 1712.37 6811.57 1755.26 6764.24 1809.99C6716.91 1863.23 6679.19 1923.88 6651.09 1991.91C6624.47 2059.95 6608.94 2130.2 6604.5 2202.68C6600.06 2279.59 6610.42 2346.88 6635.56 2404.57C6662.18 2460.77 6701.38 2505.14 6753.15 2537.68C6804.91 2570.22 6866.29 2586.49 6937.29 2586.49C7002.37 2586.49 7061.53 2574.66 7114.77 2550.99C7169.5 2525.85 7218.31 2493.31 7261.2 2453.38C7305.57 2411.96 7344.03 2364.63 7376.57 2311.39L7700.48 2446.72C7647.23 2539.9 7580.68 2621.99 7500.81 2692.98C7422.42 2762.5 7333.67 2816.48 7234.58 2854.94C7136.96 2893.4 7033.43 2912.62 6923.98 2912.62ZM7466.35 2886L8329.38 1332.99H8706.54L7870.13 2886H7466.35ZM8697.66 2886L8373.75 1332.99H8713.19L9057.07 2886H8697.66ZM7803.57 2590.93L7854.6 2275.89H8877.37L8826.34 2590.93H7803.57ZM9004.71 2886L9264.28 1332.99H9621.48L9415.15 2557.65H10078.5L10023 2886H9004.71ZM9991.81 2886L10251.4 1332.99H10608.6L10349 2886H9991.81ZM11162.9 2912.62C11013.6 2912.62 10886.4 2883.78 10781.3 2826.1C10676.3 2766.94 10596.5 2684.85 10541.7 2579.84C10487 2474.82 10461.9 2354.28 10466.3 2218.21C10470.7 2095.45 10495.9 1979.34 10541.7 1869.89C10589.1 1758.96 10654.1 1661.34 10737 1577.04C10819.8 1492.73 10915.9 1426.91 11025.4 1379.58C11134.8 1330.77 11254.6 1306.37 11384.8 1306.37C11488.3 1306.37 11580 1321.9 11659.9 1352.96C11739.8 1382.54 11807.8 1423.22 11864 1474.98C11920.2 1526.75 11963.8 1585.91 11994.9 1652.47L11668.8 1809.99C11651 1773.01 11626.6 1741.95 11595.6 1716.81C11566 1690.18 11531.2 1670.22 11491.3 1656.91C11452.8 1642.12 11409.2 1634.72 11360.4 1634.72C11293.8 1634.72 11229.5 1649.51 11167.4 1679.09C11106.7 1707.19 11051.3 1747.13 11001 1798.9C10952.2 1850.66 10913 1911.3 10883.4 1980.82C10853.8 2048.86 10836.8 2123.55 10832.4 2204.9C10829.4 2280.33 10841.2 2346.88 10867.9 2404.57C10894.5 2462.25 10934.4 2506.62 10987.7 2537.68C11042.4 2568.74 11108.2 2584.27 11185.1 2584.27C11257.6 2584.27 11323.4 2570.22 11382.6 2542.12C11443.2 2514.02 11493.5 2475.56 11533.4 2426.75C11574.9 2377.94 11605.2 2323.22 11624.4 2262.58L11974.9 2233.74C11960.1 2319.52 11930.6 2403.09 11886.2 2484.44C11841.8 2564.31 11784.1 2636.78 11713.1 2701.86C11643.6 2766.94 11562.3 2818.7 11469.1 2857.16C11375.9 2894.13 11273.9 2912.62 11162.9 2912.62ZM11265 2309.17L11311.6 2034.06H12008.2L11974.9 2233.74L11764.2 2309.17H11265ZM11838.2 2886L12097.7 1332.99H12474.9L12994 2289.2L13153.8 1332.99H13511L13251.4 2886H12894.2L12359.5 1903.17L12195.4 2886H11838.2Z" fill="#006633"/>
<line x1="1835.97" y1="2784.42" x2="2787.38" y2="2728.92" stroke="#006633" stroke-width="200"/>
</svg>
