<svg width="2084" height="2084" viewBox="0 0 2084 2084" fill="none" xmlns="http://www.w3.org/2000/svg">
<mask id="mask0_67_9" style="mask-type:alpha" maskUnits="userSpaceOnUse" x="0" y="0" width="2084" height="2084">
<circle cx="1042" cy="1042" r="1042" fill="#1FBB78"/>
</mask>
<g mask="url(#mask0_67_9)">
<circle cx="1042" cy="1042" r="1042" fill="#006633"/>
<path d="M1624.16 283.794L1677.57 480.519C1664.51 591.492 1629.8 743.709 1573.42 937.17C1529.51 833.912 1483.52 739.258 1435.45 653.21C1317.95 605.735 1202.52 581.997 1089.17 581.997C904.022 581.997 759.52 636.594 655.668 745.786C551.223 855.572 499 984.052 499 1131.22C499 1211.93 520.957 1281.36 564.872 1339.52C608.193 1397.09 691.274 1450.5 814.116 1499.75C937.551 1549.01 1091.85 1586.1 1277 1611.02C1338.72 1619.92 1401.92 1627.04 1466.6 1632.38C1531.29 1637.73 1602.2 1641.88 1679.35 1644.85C1756.5 1647.81 1828.6 1649.3 1895.66 1649.3L1738.99 1854.92C1507.55 1898.24 1289.16 1919.91 1083.83 1919.91C812.632 1919.91 614.424 1867.98 489.208 1764.13C362.806 1660.87 299.604 1526.75 299.604 1361.78C299.604 1179 352.124 999.185 457.162 822.34C561.014 645.495 703.44 508.114 884.438 410.197C1065.44 312.279 1246.73 263.32 1428.33 263.32C1488.86 263.32 1554.13 270.145 1624.16 283.794Z" fill="white"/>
</g>
</svg>
